<?xml version="1.0" encoding="utf-8"?>
<!-- Generator: Adobe Illustrator 27.1.1, SVG Export Plug-In . SVG Version: 6.00 Build 0)  -->
<svg version="1.1" xmlns="http://www.w3.org/2000/svg" xmlns:xlink="http://www.w3.org/1999/xlink" x="0px" y="0px"
	 viewBox="0 0 149.5 46" style="enable-background:new 0 0 149.5 46;" xml:space="preserve">
<style type="text/css">
	.st0{fill:#027A0E;}
	.st1{fill:#FFFFFF;}
</style>
<g id="II">
	<path class="st0" d="M103.54,0.15V46h45.85V0.15H103.54z M123.59,13.67h-4.56V32.3h4.56v4.56h-14.27V32.3h4.56V13.67h-4.56V9.11
		h14.27V13.67z M143.61,13.67h-4.56V32.3h4.56v4.56h-14.27V32.3h4.56V13.67h-4.56V9.11h14.27V13.67z"/>
	<g>
		<polygon class="st1" points="109.32,32.3 109.32,36.86 123.59,36.86 123.59,32.3 119.03,32.3 119.03,13.67 123.59,13.67 
			123.59,9.11 109.32,9.11 109.32,13.67 113.88,13.67 113.88,32.3 		"/>
		<polygon class="st1" points="129.34,32.3 129.34,36.86 143.61,36.86 143.61,32.3 139.05,32.3 139.05,13.67 143.61,13.67 
			143.61,9.11 129.34,9.11 129.34,13.67 133.9,13.67 133.9,32.3 		"/>
	</g>
</g>
<g id="UGO">
	<polygon class="st0" points="103.63,4.73 103.63,0.15 4.69,0.15 3.46,0.15 0.11,0.15 0.11,46 3.46,46 4.69,46 103.63,46 
		103.63,41.41 4.69,41.41 4.69,4.73 	"/>
	<g>
		<path class="st0" d="M22.27,37.28c-2.2,0-4.17-0.47-5.89-1.41c-1.73-0.94-3.08-2.24-4.08-3.9c-0.99-1.66-1.49-3.54-1.49-5.63V9.14
			h5.21v16.84c0,1.25,0.28,2.35,0.86,3.32c0.57,0.97,1.33,1.74,2.29,2.33c0.96,0.58,1.99,0.88,3.1,0.88c1.22,0,2.32-0.29,3.3-0.88
			c0.98-0.58,1.76-1.36,2.33-2.33c0.57-0.97,0.86-2.08,0.86-3.32V9.14h5.01v17.19c0,2.1-0.5,3.97-1.49,5.63
			c-0.99,1.66-2.35,2.96-4.08,3.9C26.47,36.81,24.5,37.28,22.27,37.28z"/>
		<path class="st0" d="M53.59,37.44c-2.1,0-4.03-0.37-5.81-1.09c-1.78-0.73-3.32-1.74-4.64-3.04c-1.31-1.3-2.33-2.82-3.04-4.56
			c-0.72-1.74-1.07-3.63-1.07-5.67c0-2.02,0.36-3.89,1.09-5.63c0.73-1.74,1.76-3.25,3.08-4.54c1.33-1.29,2.89-2.29,4.68-3
			c1.79-0.72,3.72-1.07,5.79-1.07c1.46,0,2.87,0.2,4.22,0.6c1.35,0.4,2.57,0.96,3.66,1.67c1.09,0.72,1.99,1.53,2.71,2.43l-3.26,3.42
			c-0.74-0.72-1.51-1.31-2.29-1.79c-0.78-0.48-1.6-0.85-2.45-1.11c-0.85-0.26-1.73-0.4-2.63-0.4c-1.33,0-2.55,0.24-3.68,0.72
			c-1.13,0.48-2.11,1.14-2.95,1.99c-0.84,0.85-1.49,1.84-1.97,2.99c-0.48,1.14-0.72,2.39-0.72,3.74c0,1.3,0.25,2.53,0.74,3.7
			c0.49,1.17,1.17,2.19,2.05,3.06c0.88,0.88,1.89,1.56,3.04,2.05c1.15,0.49,2.38,0.74,3.68,0.74c0.98,0,1.9-0.15,2.75-0.44
			c0.85-0.29,1.61-0.7,2.27-1.21c0.66-0.52,1.17-1.12,1.53-1.81c0.36-0.69,0.54-1.43,0.54-2.23v-0.88l0.72,0.84h-8.24v-4.62h12.62
			c0.05,0.29,0.09,0.62,0.12,0.98c0.03,0.36,0.05,0.7,0.06,1.03c0.01,0.33,0.02,0.62,0.02,0.86c0,1.83-0.32,3.5-0.96,4.99
			c-0.64,1.5-1.53,2.79-2.69,3.88c-1.15,1.09-2.49,1.93-4.02,2.53C57.02,37.14,55.37,37.44,53.59,37.44z"/>
		<path class="st0" d="M83.64,37.44c-1.99,0-3.83-0.36-5.53-1.07c-1.7-0.72-3.18-1.72-4.44-3c-1.26-1.29-2.24-2.81-2.93-4.56
			c-0.69-1.75-1.03-3.66-1.03-5.73c0-2.07,0.34-3.98,1.03-5.73c0.69-1.75,1.66-3.27,2.93-4.56c1.26-1.29,2.74-2.29,4.44-3.01
			c1.7-0.72,3.54-1.07,5.53-1.07c2.02,0,3.87,0.36,5.57,1.07c1.7,0.72,3.17,1.73,4.42,3.02c1.25,1.3,2.22,2.82,2.91,4.56
			c0.69,1.74,1.03,3.64,1.03,5.71c0,2.04-0.35,3.94-1.03,5.69c-0.69,1.75-1.66,3.28-2.91,4.58c-1.25,1.3-2.72,2.31-4.42,3.02
			C87.51,37.08,85.66,37.44,83.64,37.44z M83.64,32.51c1.27,0,2.43-0.23,3.48-0.7c1.05-0.46,1.96-1.13,2.73-1.99
			c0.77-0.86,1.37-1.86,1.81-3c0.44-1.14,0.66-2.39,0.66-3.74c0-1.35-0.22-2.6-0.66-3.74c-0.44-1.14-1.04-2.14-1.81-3
			c-0.77-0.86-1.68-1.53-2.73-1.99c-1.05-0.46-2.21-0.7-3.48-0.7c-1.25,0-2.4,0.23-3.46,0.7c-1.06,0.46-1.98,1.12-2.75,1.97
			c-0.77,0.85-1.37,1.84-1.79,2.99C75.22,20.43,75,21.7,75,23.07c0,1.35,0.21,2.61,0.64,3.76c0.42,1.15,1.02,2.16,1.79,3.01
			c0.77,0.85,1.68,1.51,2.75,1.97C81.24,32.28,82.39,32.51,83.64,32.51z"/>
	</g>
</g>
</svg>
